<svg width="16" height="16" viewBox="0 0 16 16" fill="none" xmlns="http://www.w3.org/2000/svg">
<path d="M6.00001 0.666748V2.00008H10V0.666748H11.3333V2.00008H14C14.3682 2.00008 14.6667 2.29856 14.6667 2.66675V13.3334C14.6667 13.7016 14.3682 14.0001 14 14.0001H2.00001C1.63182 14.0001 1.33334 13.7016 1.33334 13.3334V2.66675C1.33334 2.29856 1.63182 2.00008 2.00001 2.00008H4.66668V0.666748H6.00001ZM13.3333 7.33342H2.66668V12.6667H13.3333V7.33342ZM5.33334 8.66675V10.0001H4.00001V8.66675H5.33334ZM8.66668 8.66675V10.0001H7.33334V8.66675H8.66668ZM12 8.66675V10.0001H10.6667V8.66675H12ZM4.66668 3.33341H2.66668V6.00008H13.3333V3.33341H11.3333V4.66675H10V3.33341H6.00001V4.66675H4.66668V3.33341Z" fill="#848488"/>
</svg>
