<svg width="48" height="48" viewBox="0 0 48 48" fill="none" xmlns="http://www.w3.org/2000/svg">
<rect width="48" height="48" rx="12" fill="#1D65F3" fill-opacity="0.1"/>
<path d="M19.4049 14.4C19.899 13.0018 21.2325 12 22.8 12H25.2C26.7674 12 28.101 13.0018 28.5952 14.4H34.8C35.4628 14.4 36 14.9373 36 15.6V34.8C36 35.4628 35.4628 36 34.8 36H13.2C12.5373 36 12 35.4628 12 34.8V15.6C12 14.9373 12.5373 14.4 13.2 14.4H19.4049ZM21.6 21.6V28.8L27.6 25.2L21.6 21.6ZM22.8 14.4C22.1372 14.4 21.6 14.9373 21.6 15.6C21.6 16.2627 22.1372 16.8 22.8 16.8H25.2C25.8628 16.8 26.4 16.2627 26.4 15.6C26.4 14.9373 25.8628 14.4 25.2 14.4H22.8Z" fill="#1D65F3"/>
</svg>
